# xmcd
#
# Track frame offsets:
# 150
# 11690
# 23807
# 37400
# 50855
# 66477
# 82510
# 93330
# 110052
# 121230
#
# Disc length: 1806 seconds
#
#
# Revision: 0
# Processed by: cddbd v1.4PL0 Copyright (c) Steve Scherf et al.
# Submitted via: FreeRIP 2.10 
#
DISCID=85070c0a
DTITLE=The Kendalls - Best of The Kendalls
DYEAR=1994
DGENRE=Country
TTITLE0=Heaven's Just A Sin Away
TTITLE1=Sweet Desire
TTITLE2=Thank God For The Radio
TTITLE3=Pittsburg Steelers
TTITLE4=Too Late
TTITLE5=Little Doll
TTITLE6=Fire At First Sight
TTITLE7=Central Standard Time
TTITLE8=If I Get That Close
TTITLE9=Party Line
EXTD=
EXTT0=
EXTT1=
EXTT2=
EXTT3=
EXTT4=
EXTT5=
EXTT6=
EXTT7=
EXTT8=
EXTT9=
PLAYORDER=
